<svg width="1920" height="500" xmlns="http://www.w3.org/2000/svg" version="1.1">
 <g>
  <g stroke="null" id="svg_1">
   <path
                stroke="null"
                d="m1215.61473,142.66321c-7.84489,-11.62141 -4.93512,-27.30234 6.50056,-35.01457c11.71869,-7.89796 27.34657,-4.7317 35.19146,6.89855l164.97267,244.57134c7.83605,11.62141 4.92627,27.30234 -6.5094,35.01457c-11.70985,7.89796 -27.34657,4.72285 -35.19146,-6.89855l-52.10175,-77.24609l-183.47494,0l-49.17429,77.52026c-7.63263,11.75407 -23.19859,15.1945 -34.78462,7.67685c-11.83367,-7.68569 -15.02646,-23.30472 -7.38499,-35.07648l50.73089,-80.11164c5.64266,-9.10078 17.99814,-16.48577 27.59421,-16.48577l165.14955,0l-81.51788,-120.84847z"
                fill="#004876"
                id="svg_2"
            />
   <path stroke="null" d="m1111.34038,136.31557l46.521,26.85129l46.50331,26.86013l-46.50331,26.85129l-46.521,26.85129l0,-53.70257l0,-53.71141z" fill="#ed7700" id="svg_3" />
   <path
                stroke="null"
                d="m1492.2149,371.60058l0,-91.5031l0,-20.57183l0,-3.01591l0,-3.93571c2.46756,-12.52352 13.19569,-22.28763 26.30294,-22.28763l141.72101,0l100.29433,0c22.66793,0 41.04638,-17.41442 41.04638,-38.90606c0,-21.4828 -18.37845,-38.91491 -41.04638,-38.91491l-102.98299,0l-139.03235,-0.02653c-14.54002,0 -26.30294,-11.55065 -26.30294,-25.80766c0,-14.23932 11.76291,-25.79881 26.30294,-25.79881l246.70282,0l6.9074,0.00884c45.29164,0 81.96894,36.69499 81.96894,81.9601l0,11.54181c0,19.96158 -5.60728,39.42788 -15.75169,54.94077c-16.16737,20.95214 -39.61361,32.98923 -65.68659,32.98923l-228.83734,0l0,89.3274c0,14.54002 -11.5595,26.29409 -25.80766,26.29409c-14.23932,0 -25.79881,-11.76291 -25.79881,-26.29409"
                fill="#004876"
                id="svg_4"
            />
   <path
                stroke="null"
                d="m526.99866,128.61131c0,-14.01821 11.18804,-25.38313 24.97629,-25.38313l1.84846,0c13.7971,0 24.97629,11.36492 24.97629,25.38313l0,242.90861c0,14.02705 -11.17919,25.38313 -24.97629,25.38313l-1.84846,0c-13.78826,0 -24.97629,-11.35608 -24.97629,-25.38313l0,-242.90861z"
                fill="#004876"
                id="svg_5"
            />
   <path
                stroke="null"
                d="m388.54296,128.61131c0,-14.01821 12.26704,-25.38313 26.06414,-25.38313l3.64385,0c13.7971,0 24.97629,11.36492 24.97629,25.38313l0,68.13646l0,109.44817c0,50.27983 -40.77221,91.05204 -91.05204,91.05204l-195.22901,0c-50.27983,0 -91.04319,-40.77221 -91.04319,-91.05204l0,-109.44817l0,-68.13646c0,-14.01821 10.93155,-25.38313 24.72865,-25.38313l3.65269,0c13.78826,0 22.92442,11.36492 22.92442,25.38313l0,51.40305l0,16.73341l0,108.13922c0,21.28822 17.25522,38.54345 38.54345,38.54345l194.25614,0c21.28822,0 38.54345,-17.25522 38.54345,-38.54345l-0.00884,-108.13922l0.00884,-16.73341l-0.00884,-51.40305z"
                fill="#ed7700"
                id="svg_6"
            />
   <path
                stroke="null"
                d="m1016.12542,181.81532c0.41568,4.05069 0.42453,5.87261 -0.10613,9.79948c-3.21932,14.40736 -7.92449,20.12962 -23.06593,22.06652c-11.53296,1.46815 -29.4692,-12.78885 -29.08889,-27.32003c-1.37087,-16.77763 -20.50108,-30.03523 -38.87953,-30.03523l-202.26022,0c-19.28057,0 -34.89075,14.54887 -34.89075,32.49395c0,17.93623 15.61018,32.47626 34.89075,32.47626l77.3876,0l23.40201,0l97.9329,0c47.08704,0 85.27671,39.25983 85.27671,87.6912c0,48.42253 -38.18967,87.68236 -85.27671,87.68236l-197.62581,0c-47.09588,0 -77.3876,-27.01933 -82.7384,-78.89997c-0.41568,-4.05069 -0.42453,-5.87261 0.10613,-9.79948c3.13973,-14.4162 18.51996,-23.37548 31.05233,-19.81122c14.20394,4.04184 16.60075,14.72575 20.96983,29.46035c4.28948,17.37904 14.47811,25.20625 32.43204,25.20625l197.7231,0c18.8472,0 34.10361,-14.54887 34.10361,-32.49395c0,-17.93623 -15.25641,-32.47626 -34.10361,-32.47626l-123.25412,0l-75.41532,0c-48.18373,0 -87.24899,-39.26868 -87.24899,-87.6912c0,-48.43137 39.06526,-87.6912 87.24899,-87.6912l202.15409,0c48.18373,0 83.79971,27.46154 89.27433,79.34219"
                fill="#004876"
                id="svg_7"
            />
  </g>
 </g>

</svg>
